# xmcd
#
# Track frame offsets:
#	150
#	50837
#	98355
#	145127
#	190195
#
# Disc length: 3544 seconds
#
# Revision: 1
# Processed by: cddbd v1.5.1PL0 Copyright (c) Steve Scherf et al.
# Submitted via: CDex 1.50Beta5
#
DISCID=3d0dd605
DTITLE=鈴村健一・山口勝平・遊佐浩二・緑川光 - 神無ノ月ビジュアルファンブックドラマCD
DYEAR=1900
DGENRE=Other
TTITLE0=Track_01
TTITLE1=Track_02
TTITLE2=Track_03
TTITLE3=Track_04
TTITLE4=Track_05
EXTD=
EXTT0=
EXTT1=
EXTT2=
EXTT3=
EXTT4=
PLAYORDER=
